<mxfile host="app.diagrams.net" modified="2021-04-27T06:54:00.910Z" agent="5.0 (Windows NT 10.0; Win64; x64) AppleWebKit/537.36 (KHTML, like Gecko) Chrome/90.0.4430.85 Safari/537.36" etag="dKwopX1hE4ef547D47d_" version="14.6.6" type="github">
  <diagram id="Pq8F2uY2wZP6R7aFD6ed" name="Page-1">
    <mxGraphModel dx="501" dy="784" grid="1" gridSize="10" guides="1" tooltips="1" connect="1" arrows="1" fold="1" page="1" pageScale="1" pageWidth="827" pageHeight="1169" math="0" shadow="0">
      <root>
        <mxCell id="0" />
        <mxCell id="1" parent="0" />
        <mxCell id="CxS3aZbCNeCSUDY30MPM-6" value="&lt;font size=&quot;1&quot;&gt;상품 번호&lt;br&gt;&lt;/font&gt;" style="edgeStyle=orthogonalEdgeStyle;rounded=0;orthogonalLoop=1;jettySize=auto;html=1;" edge="1" parent="1" source="CxS3aZbCNeCSUDY30MPM-2" target="CxS3aZbCNeCSUDY30MPM-5">
          <mxGeometry relative="1" as="geometry" />
        </mxCell>
        <mxCell id="CxS3aZbCNeCSUDY30MPM-19" style="edgeStyle=orthogonalEdgeStyle;rounded=0;orthogonalLoop=1;jettySize=auto;html=1;entryX=0.5;entryY=0;entryDx=0;entryDy=0;" edge="1" parent="1" source="CxS3aZbCNeCSUDY30MPM-2" target="CxS3aZbCNeCSUDY30MPM-7">
          <mxGeometry relative="1" as="geometry" />
        </mxCell>
        <mxCell id="CxS3aZbCNeCSUDY30MPM-2" value="상품목록&lt;br&gt;" style="rounded=0;whiteSpace=wrap;html=1;fillColor=#fff2cc;strokeColor=#d6b656;" vertex="1" parent="1">
          <mxGeometry x="354" y="190" width="120" height="60" as="geometry" />
        </mxCell>
        <mxCell id="CxS3aZbCNeCSUDY30MPM-4" value="" style="edgeStyle=orthogonalEdgeStyle;rounded=0;orthogonalLoop=1;jettySize=auto;html=1;" edge="1" parent="1" source="CxS3aZbCNeCSUDY30MPM-3" target="CxS3aZbCNeCSUDY30MPM-2">
          <mxGeometry relative="1" as="geometry" />
        </mxCell>
        <mxCell id="CxS3aZbCNeCSUDY30MPM-3" value="Actor" style="shape=umlActor;verticalLabelPosition=bottom;verticalAlign=top;html=1;outlineConnect=0;" vertex="1" parent="1">
          <mxGeometry x="399" y="90" width="30" height="60" as="geometry" />
        </mxCell>
        <mxCell id="CxS3aZbCNeCSUDY30MPM-17" style="edgeStyle=orthogonalEdgeStyle;rounded=0;orthogonalLoop=1;jettySize=auto;html=1;entryX=0.75;entryY=1;entryDx=0;entryDy=0;" edge="1" parent="1">
          <mxGeometry relative="1" as="geometry">
            <mxPoint x="474" y="480" as="sourcePoint" />
            <mxPoint x="630" y="200" as="targetPoint" />
            <Array as="points">
              <mxPoint x="520" y="480" />
              <mxPoint x="520" y="230" />
            </Array>
          </mxGeometry>
        </mxCell>
        <mxCell id="CxS3aZbCNeCSUDY30MPM-23" value="상품번호" style="edgeLabel;html=1;align=center;verticalAlign=middle;resizable=0;points=[];" vertex="1" connectable="0" parent="CxS3aZbCNeCSUDY30MPM-17">
          <mxGeometry x="-0.1325" y="3" relative="1" as="geometry">
            <mxPoint as="offset" />
          </mxGeometry>
        </mxCell>
        <mxCell id="CxS3aZbCNeCSUDY30MPM-24" style="edgeStyle=orthogonalEdgeStyle;rounded=0;orthogonalLoop=1;jettySize=auto;html=1;" edge="1" parent="1" source="CxS3aZbCNeCSUDY30MPM-5" target="CxS3aZbCNeCSUDY30MPM-8">
          <mxGeometry relative="1" as="geometry" />
        </mxCell>
        <mxCell id="CxS3aZbCNeCSUDY30MPM-5" value="상품 상세보기" style="rounded=0;whiteSpace=wrap;html=1;fillColor=#fff2cc;strokeColor=#d6b656;" vertex="1" parent="1">
          <mxGeometry x="354" y="450" width="120" height="60" as="geometry" />
        </mxCell>
        <mxCell id="CxS3aZbCNeCSUDY30MPM-20" style="edgeStyle=orthogonalEdgeStyle;rounded=0;orthogonalLoop=1;jettySize=auto;html=1;entryX=0;entryY=0.75;entryDx=0;entryDy=0;" edge="1" parent="1" source="CxS3aZbCNeCSUDY30MPM-7" target="CxS3aZbCNeCSUDY30MPM-5">
          <mxGeometry relative="1" as="geometry" />
        </mxCell>
        <mxCell id="CxS3aZbCNeCSUDY30MPM-21" value="상품번호" style="edgeLabel;html=1;align=center;verticalAlign=middle;resizable=0;points=[];" vertex="1" connectable="0" parent="CxS3aZbCNeCSUDY30MPM-20">
          <mxGeometry x="0.2374" y="3" relative="1" as="geometry">
            <mxPoint as="offset" />
          </mxGeometry>
        </mxCell>
        <mxCell id="CxS3aZbCNeCSUDY30MPM-7" value="상품등록" style="rounded=0;whiteSpace=wrap;html=1;" vertex="1" parent="1">
          <mxGeometry x="160" y="300" width="120" height="60" as="geometry" />
        </mxCell>
        <mxCell id="CxS3aZbCNeCSUDY30MPM-15" style="edgeStyle=orthogonalEdgeStyle;rounded=0;orthogonalLoop=1;jettySize=auto;html=1;entryX=0.5;entryY=1;entryDx=0;entryDy=0;" edge="1" parent="1" source="CxS3aZbCNeCSUDY30MPM-8" target="CxS3aZbCNeCSUDY30MPM-5">
          <mxGeometry relative="1" as="geometry">
            <Array as="points">
              <mxPoint x="600" y="600" />
              <mxPoint x="414" y="600" />
            </Array>
          </mxGeometry>
        </mxCell>
        <mxCell id="CxS3aZbCNeCSUDY30MPM-22" value="상품번호" style="edgeLabel;html=1;align=center;verticalAlign=middle;resizable=0;points=[];" vertex="1" connectable="0" parent="CxS3aZbCNeCSUDY30MPM-15">
          <mxGeometry x="-0.0769" y="-1" relative="1" as="geometry">
            <mxPoint as="offset" />
          </mxGeometry>
        </mxCell>
        <mxCell id="CxS3aZbCNeCSUDY30MPM-8" value="상품수정" style="rounded=0;whiteSpace=wrap;html=1;" vertex="1" parent="1">
          <mxGeometry x="540" y="455" width="120" height="50" as="geometry" />
        </mxCell>
        <mxCell id="CxS3aZbCNeCSUDY30MPM-25" style="edgeStyle=orthogonalEdgeStyle;rounded=0;orthogonalLoop=1;jettySize=auto;html=1;entryX=1;entryY=0.5;entryDx=0;entryDy=0;" edge="1" parent="1" source="CxS3aZbCNeCSUDY30MPM-9" target="CxS3aZbCNeCSUDY30MPM-2">
          <mxGeometry relative="1" as="geometry" />
        </mxCell>
        <mxCell id="CxS3aZbCNeCSUDY30MPM-9" value="상품삭제" style="rounded=0;whiteSpace=wrap;html=1;" vertex="1" parent="1">
          <mxGeometry x="540" y="140" width="120" height="60" as="geometry" />
        </mxCell>
      </root>
    </mxGraphModel>
  </diagram>
</mxfile>
